<svg width="20" height="20" viewBox="0 0 20 20" fill="none" xmlns="http://www.w3.org/2000/svg">
<path d="M7.05006 9.40832L11.7667 4.69999C11.8442 4.62188 11.9364 4.55989 12.0379 4.51758C12.1395 4.47527 12.2484 4.45349 12.3584 4.45349C12.4684 4.45349 12.5773 4.47527 12.6789 4.51758C12.7804 4.55989 12.8726 4.62188 12.9501 4.69999C13.1053 4.85613 13.1924 5.06734 13.1924 5.28749C13.1924 5.50764 13.1053 5.71885 12.9501 5.87499L8.82506 10.0417L12.9501 14.1667C13.1053 14.3228 13.1924 14.534 13.1924 14.7542C13.1924 14.9743 13.1053 15.1855 12.9501 15.3417C12.8729 15.4204 12.7808 15.483 12.6793 15.526C12.5777 15.5689 12.4686 15.5912 12.3584 15.5917C12.2481 15.5912 12.1391 15.5689 12.0375 15.526C11.9359 15.483 11.8439 15.4204 11.7667 15.3417L7.05006 10.6333C6.96547 10.5553 6.89796 10.4606 6.85179 10.3552C6.80562 10.2497 6.78178 10.1359 6.78178 10.0208C6.78178 9.90574 6.80562 9.7919 6.85179 9.68648C6.89796 9.58107 6.96547 9.48636 7.05006 9.40832Z" fill="white"/>
</svg>
