<svg width="17" height="17" viewBox="0 0 17 17" fill="none" xmlns="http://www.w3.org/2000/svg">
<path d="M13.4585 7.79171H9.2085V3.54171C9.2085 3.35385 9.13387 3.17368 9.00103 3.04084C8.86819 2.908 8.68802 2.83337 8.50016 2.83337C8.3123 2.83337 8.13213 2.908 7.9993 3.04084C7.86646 3.17368 7.79183 3.35385 7.79183 3.54171V7.79171H3.54183C3.35397 7.79171 3.1738 7.86633 3.04096 7.99917C2.90812 8.13201 2.8335 8.31218 2.8335 8.50004C2.8335 8.6879 2.90812 8.86807 3.04096 9.00091C3.1738 9.13375 3.35397 9.20837 3.54183 9.20837H7.79183V13.4584C7.79183 13.6462 7.86646 13.8264 7.9993 13.9592C8.13213 14.0921 8.3123 14.1667 8.50016 14.1667C8.68802 14.1667 8.86819 14.0921 9.00103 13.9592C9.13387 13.8264 9.2085 13.6462 9.2085 13.4584V9.20837H13.4585C13.6464 9.20837 13.8265 9.13375 13.9594 9.00091C14.0922 8.86807 14.1668 8.6879 14.1668 8.50004C14.1668 8.31218 14.0922 8.13201 13.9594 7.99917C13.8265 7.86633 13.6464 7.79171 13.4585 7.79171Z" fill="#E44444"/>
</svg>
