<svg width="20" height="20" viewBox="0 0 20 20" fill="none" xmlns="http://www.w3.org/2000/svg">
<path d="M7.04999 9.40832L11.7667 4.69999C11.8441 4.62188 11.9363 4.55989 12.0378 4.51758C12.1394 4.47527 12.2483 4.45349 12.3583 4.45349C12.4683 4.45349 12.5773 4.47527 12.6788 4.51758C12.7804 4.55989 12.8725 4.62188 12.95 4.69999C13.1052 4.85613 13.1923 5.06734 13.1923 5.28749C13.1923 5.50764 13.1052 5.71885 12.95 5.87499L8.82499 10.0417L12.95 14.1667C13.1052 14.3228 13.1923 14.534 13.1923 14.7542C13.1923 14.9743 13.1052 15.1855 12.95 15.3417C12.8728 15.4204 12.7808 15.483 12.6792 15.526C12.5777 15.5689 12.4686 15.5912 12.3583 15.5917C12.2481 15.5912 12.139 15.5689 12.0374 15.526C11.9359 15.483 11.8438 15.4204 11.7667 15.3417L7.04999 10.6333C6.96541 10.5553 6.8979 10.4606 6.85173 10.3552C6.80555 10.2497 6.78172 10.1359 6.78172 10.0208C6.78172 9.90574 6.80555 9.7919 6.85173 9.68648C6.8979 9.58107 6.96541 9.48636 7.04999 9.40832Z" fill="black"/>
</svg>
