<svg width="20" height="20" viewBox="0 0 20 20" fill="none" xmlns="http://www.w3.org/2000/svg">
<path d="M17.9167 12.5C17.9148 11.9998 17.763 11.5116 17.4807 11.0986C17.1984 10.6856 16.7988 10.3667 16.3334 10.1833L17.8917 4.35C17.9242 4.22576 17.9276 4.09569 17.9016 3.96993C17.8756 3.84416 17.8209 3.72611 17.7417 3.625C17.6607 3.53025 17.5596 3.45487 17.4456 3.40439C17.3317 3.35391 17.2079 3.32963 17.0834 3.33333H5.66669L5.39169 2.28333C5.34387 2.10576 5.23867 1.94898 5.09246 1.83744C4.94625 1.7259 4.76725 1.66586 4.58335 1.66666H2.91669V3.33333H3.94169L6.00835 11.05C6.05719 11.2318 6.16614 11.3917 6.31746 11.5037C6.46878 11.6157 6.65355 11.6731 6.84169 11.6667H15.4167C15.6377 11.6667 15.8497 11.7545 16.0059 11.9107C16.1622 12.067 16.25 12.279 16.25 12.5C16.25 12.721 16.1622 12.933 16.0059 13.0893C15.8497 13.2455 15.6377 13.3333 15.4167 13.3333H4.58335C4.36234 13.3333 4.15038 13.4211 3.9941 13.5774C3.83782 13.7337 3.75002 13.9456 3.75002 14.1667C3.75002 14.3877 3.83782 14.5996 3.9941 14.7559C4.15038 14.9122 4.36234 15 4.58335 15H5.56669C5.42963 15.3776 5.38559 15.7827 5.4383 16.1809C5.491 16.5792 5.63889 16.9588 5.86945 17.2878C6.10001 17.6168 6.40645 17.8853 6.76281 18.0707C7.11918 18.2561 7.51497 18.3529 7.91669 18.3529C8.3184 18.3529 8.71419 18.2561 9.07056 18.0707C9.42692 17.8853 9.73336 17.6168 9.96392 17.2878C10.1945 16.9588 10.3424 16.5792 10.3951 16.1809C10.4478 15.7827 10.4037 15.3776 10.2667 15H12.2334C12.1086 15.3438 12.0608 15.7109 12.0933 16.0752C12.1259 16.4395 12.238 16.7922 12.4217 17.1085C12.6055 17.4248 12.8564 17.6969 13.1567 17.9056C13.4571 18.1144 13.7996 18.2547 14.1601 18.3166C14.5206 18.3786 14.8903 18.3606 15.2431 18.2641C15.5959 18.1676 15.9232 17.9949 16.202 17.7581C16.4808 17.5212 16.7042 17.2261 16.8564 16.8936C17.0087 16.561 17.0862 16.1991 17.0834 15.8333C17.0818 15.4028 16.9668 14.9803 16.75 14.6083C17.1064 14.3837 17.4002 14.0726 17.6041 13.704C17.8081 13.3354 17.9156 12.9213 17.9167 12.5ZM14.6584 10H7.50002L6.11669 5H16L14.6584 10ZM7.91669 16.6667C7.75187 16.6667 7.59075 16.6178 7.45371 16.5262C7.31667 16.4347 7.20986 16.3045 7.14679 16.1522C7.08371 16 7.06721 15.8324 7.09937 15.6708C7.13152 15.5091 7.21089 15.3606 7.32743 15.2441C7.44397 15.1275 7.59246 15.0482 7.75411 15.016C7.91576 14.9839 8.08332 15.0004 8.23559 15.0634C8.38786 15.1265 8.51801 15.2333 8.60958 15.3704C8.70115 15.5074 8.75002 15.6685 8.75002 15.8333C8.75002 16.0543 8.66222 16.2663 8.50594 16.4226C8.34966 16.5789 8.1377 16.6667 7.91669 16.6667ZM14.5834 16.6667C14.4185 16.6667 14.2574 16.6178 14.1204 16.5262C13.9833 16.4347 13.8765 16.3045 13.8135 16.1522C13.7504 16 13.7339 15.8324 13.766 15.6708C13.7982 15.5091 13.8776 15.3606 13.9941 15.2441C14.1106 15.1275 14.2591 15.0482 14.4208 15.016C14.5824 14.9839 14.75 15.0004 14.9023 15.0634C15.0545 15.1265 15.1847 15.2333 15.2762 15.3704C15.3678 15.5074 15.4167 15.6685 15.4167 15.8333C15.4167 16.0543 15.3289 16.2663 15.1726 16.4226C15.0163 16.5789 14.8044 16.6667 14.5834 16.6667Z" fill="#878787"/>
</svg>
