<svg width="16" height="16" viewBox="0 0 16 16" fill="none" xmlns="http://www.w3.org/2000/svg">
<path d="M9.88663 7.52667L7.05996 4.7C6.99799 4.63751 6.92425 4.58792 6.84301 4.55407C6.76177 4.52023 6.67464 4.5028 6.58663 4.5028C6.49862 4.5028 6.41148 4.52023 6.33024 4.55407C6.249 4.58792 6.17527 4.63751 6.1133 4.7C5.98913 4.82491 5.91943 4.99387 5.91943 5.17C5.91943 5.34612 5.98913 5.51509 6.1133 5.64L8.4733 8L6.1133 10.36C5.98913 10.4849 5.91943 10.6539 5.91943 10.83C5.91943 11.0061 5.98913 11.1751 6.1133 11.3C6.17559 11.3618 6.24947 11.4107 6.33069 11.4438C6.41192 11.477 6.49889 11.4938 6.58663 11.4933C6.67437 11.4938 6.76134 11.477 6.84257 11.4438C6.92379 11.4107 6.99767 11.3618 7.05996 11.3L9.88663 8.47333C9.94911 8.41136 9.99871 8.33762 10.0326 8.25638C10.0664 8.17514 10.0838 8.08801 10.0838 8C10.0838 7.91199 10.0664 7.82485 10.0326 7.74361C9.99871 7.66237 9.94911 7.58864 9.88663 7.52667Z" fill="#E44444"/>
</svg>
