<svg width="20" height="20" viewBox="0 0 20 20" fill="none" xmlns="http://www.w3.org/2000/svg">
<path d="M18.0917 16.9083L15 13.8417C16.2001 12.3454 16.7812 10.4461 16.624 8.53443C16.4668 6.62276 15.5831 4.844 14.1546 3.56388C12.7261 2.28377 10.8615 1.5996 8.9441 1.65207C7.0267 1.70454 5.20226 2.48965 3.84595 3.84596C2.48963 5.20228 1.70452 7.02671 1.65206 8.94411C1.59959 10.8615 2.28375 12.7262 3.56387 14.1546C4.84398 15.5831 6.62275 16.4668 8.53441 16.624C10.4461 16.7813 12.3453 16.2001 13.8417 15L16.9083 18.0667C16.9858 18.1448 17.078 18.2068 17.1795 18.2491C17.2811 18.2914 17.39 18.3132 17.5 18.3132C17.61 18.3132 17.7189 18.2914 17.8205 18.2491C17.922 18.2068 18.0142 18.1448 18.0917 18.0667C18.2419 17.9113 18.3258 17.7036 18.3258 17.4875C18.3258 17.2714 18.2419 17.0637 18.0917 16.9083ZM9.16666 15C8.01294 15 6.88512 14.6579 5.92584 14.0169C4.96655 13.3759 4.21888 12.4649 3.77737 11.399C3.33585 10.3331 3.22034 9.16021 3.44542 8.02865C3.6705 6.8971 4.22607 5.8577 5.04187 5.04189C5.85768 4.22608 6.89708 3.67051 8.02864 3.44543C9.16019 3.22035 10.3331 3.33587 11.399 3.77738C12.4649 4.21889 13.3759 4.96657 14.0169 5.92585C14.6579 6.88514 15 8.01295 15 9.16668C15 10.7138 14.3854 12.1975 13.2915 13.2915C12.1975 14.3854 10.7138 15 9.16666 15Z" fill="#878787"/>
</svg>
