<svg width="20" height="20" viewBox="0 0 20 20" fill="none" xmlns="http://www.w3.org/2000/svg">
<path d="M12.3584 9.40834L8.82507 5.87501C8.74761 5.7969 8.65544 5.73491 8.55389 5.6926C8.45234 5.65029 8.34342 5.62851 8.23341 5.62851C8.1234 5.62851 8.01448 5.65029 7.91293 5.6926C7.81138 5.73491 7.71921 5.7969 7.64174 5.87501C7.48653 6.03114 7.39941 6.24235 7.39941 6.46251C7.39941 6.68266 7.48653 6.89387 7.64174 7.05001L10.5917 10L7.64174 12.95C7.48653 13.1061 7.39941 13.3174 7.39941 13.5375C7.39941 13.7577 7.48653 13.9689 7.64174 14.125C7.71961 14.2022 7.81195 14.2633 7.91349 14.3048C8.01502 14.3463 8.12374 14.3673 8.23341 14.3667C8.34308 14.3673 8.4518 14.3463 8.55333 14.3048C8.65486 14.2633 8.74721 14.2022 8.82507 14.125L12.3584 10.5917C12.4365 10.5142 12.4985 10.422 12.5408 10.3205C12.5831 10.2189 12.6049 10.11 12.6049 10C12.6049 9.89 12.5831 9.78108 12.5408 9.67953C12.4985 9.57798 12.4365 9.48581 12.3584 9.40834Z" fill="black"/>
</svg>
