<svg width="20" height="20" viewBox="0 0 20 20" fill="none" xmlns="http://www.w3.org/2000/svg">
<path d="M8.33335 10.8333H2.50002C2.27901 10.8333 2.06704 10.9211 1.91076 11.0774C1.75448 11.2337 1.66669 11.4456 1.66669 11.6667V17.5C1.66669 17.721 1.75448 17.933 1.91076 18.0892C2.06704 18.2455 2.27901 18.3333 2.50002 18.3333H8.33335C8.55437 18.3333 8.76633 18.2455 8.92261 18.0892C9.07889 17.933 9.16669 17.721 9.16669 17.5V11.6667C9.16669 11.4456 9.07889 11.2337 8.92261 11.0774C8.76633 10.9211 8.55437 10.8333 8.33335 10.8333ZM7.50002 16.6667H3.33335V12.5H7.50002V16.6667ZM17.5 1.66666H11.6667C11.4457 1.66666 11.2337 1.75445 11.0774 1.91073C10.9212 2.06701 10.8334 2.27898 10.8334 2.49999V8.33332C10.8334 8.55434 10.9212 8.7663 11.0774 8.92258C11.2337 9.07886 11.4457 9.16666 11.6667 9.16666H17.5C17.721 9.16666 17.933 9.07886 18.0893 8.92258C18.2456 8.7663 18.3334 8.55434 18.3334 8.33332V2.49999C18.3334 2.27898 18.2456 2.06701 18.0893 1.91073C17.933 1.75445 17.721 1.66666 17.5 1.66666ZM16.6667 7.49999H12.5V3.33332H16.6667V7.49999ZM17.5 10.8333H11.6667C11.4457 10.8333 11.2337 10.9211 11.0774 11.0774C10.9212 11.2337 10.8334 11.4456 10.8334 11.6667V17.5C10.8334 17.721 10.9212 17.933 11.0774 18.0892C11.2337 18.2455 11.4457 18.3333 11.6667 18.3333H17.5C17.721 18.3333 17.933 18.2455 18.0893 18.0892C18.2456 17.933 18.3334 17.721 18.3334 17.5V11.6667C18.3334 11.4456 18.2456 11.2337 18.0893 11.0774C17.933 10.9211 17.721 10.8333 17.5 10.8333ZM16.6667 16.6667H12.5V12.5H16.6667V16.6667ZM8.33335 1.66666H2.50002C2.27901 1.66666 2.06704 1.75445 1.91076 1.91073C1.75448 2.06701 1.66669 2.27898 1.66669 2.49999V8.33332C1.66669 8.55434 1.75448 8.7663 1.91076 8.92258C2.06704 9.07886 2.27901 9.16666 2.50002 9.16666H8.33335C8.55437 9.16666 8.76633 9.07886 8.92261 8.92258C9.07889 8.7663 9.16669 8.55434 9.16669 8.33332V2.49999C9.16669 2.27898 9.07889 2.06701 8.92261 1.91073C8.76633 1.75445 8.55437 1.66666 8.33335 1.66666ZM7.50002 7.49999H3.33335V3.33332H7.50002V7.49999Z" fill="#E44444"/>
</svg>
