<svg width="18" height="18" viewBox="0 0 18 18" fill="none" xmlns="http://www.w3.org/2000/svg">
<path d="M14.0323 5.40752C13.9626 5.33722 13.8797 5.28143 13.7883 5.24335C13.6969 5.20527 13.5988 5.18567 13.4998 5.18567C13.4008 5.18567 13.3028 5.20527 13.2114 5.24335C13.12 5.28143 13.0371 5.33722 12.9673 5.40752L7.37984 11.0025L5.03234 8.64752C4.95995 8.57759 4.87449 8.5226 4.78085 8.4857C4.68721 8.4488 4.58722 8.4307 4.48658 8.43244C4.38595 8.43418 4.28664 8.45573 4.19433 8.49585C4.10202 8.53597 4.01852 8.59388 3.94859 8.66627C3.87866 8.73866 3.82368 8.82411 3.78677 8.91776C3.74987 9.0114 3.73177 9.11139 3.73351 9.21203C3.73525 9.31266 3.7568 9.41197 3.79692 9.50428C3.83704 9.59659 3.89495 9.68009 3.96734 9.75002L6.84734 12.63C6.91706 12.7003 7.00001 12.7561 7.09141 12.7942C7.1828 12.8323 7.28083 12.8519 7.37984 12.8519C7.47885 12.8519 7.57688 12.8323 7.66827 12.7942C7.75967 12.7561 7.84262 12.7003 7.91234 12.63L14.0323 6.51002C14.1085 6.43979 14.1692 6.35455 14.2108 6.25967C14.2523 6.1648 14.2738 6.06234 14.2738 5.95877C14.2738 5.85519 14.2523 5.75274 14.2108 5.65786C14.1692 5.56299 14.1085 5.47775 14.0323 5.40752Z" fill="white"/>
</svg>
