<svg width="20" height="20" viewBox="0 0 20 20" fill="none" xmlns="http://www.w3.org/2000/svg">
<path d="M16.2 10.8333C16.0167 10.8333 15.825 10.775 15.6417 10.7333C15.2704 10.6515 14.9056 10.5429 14.55 10.4083C14.1634 10.2677 13.7385 10.275 13.3569 10.4288C12.9754 10.5827 12.6643 10.8722 12.4834 11.2417L12.3 11.6167C11.4884 11.1652 10.7425 10.6044 10.0834 9.95C9.429 9.29085 8.86821 8.545 8.41669 7.73334L8.76669 7.5C9.13616 7.3191 9.42567 7.00794 9.57952 6.62641C9.73336 6.24488 9.74067 5.81993 9.60002 5.43334C9.46771 5.07702 9.35914 4.71233 9.27502 4.34167C9.23336 4.15834 9.20002 3.96667 9.17502 3.775C9.07383 3.18802 8.76638 2.65645 8.30804 2.27603C7.8497 1.89562 7.2706 1.69134 6.67502 1.7H4.17502C3.81588 1.69663 3.46023 1.77068 3.13228 1.91711C2.80433 2.06354 2.51178 2.27892 2.27455 2.54857C2.03732 2.81823 1.86097 3.13583 1.75751 3.47976C1.65406 3.8237 1.62592 4.18588 1.67502 4.54167C2.11897 8.03282 3.71338 11.2766 6.2064 13.7605C8.69942 16.2445 11.9489 17.8271 15.4417 18.2583H15.7584C16.3729 18.2592 16.9662 18.0338 17.425 17.625C17.6887 17.3892 17.8993 17.1002 18.0429 16.7769C18.1866 16.4537 18.26 16.1037 18.2584 15.75V13.25C18.2481 12.6712 18.0374 12.1138 17.662 11.6731C17.2866 11.2323 16.7699 10.9355 16.2 10.8333ZM16.6167 15.8333C16.6165 15.9517 16.5912 16.0686 16.5423 16.1764C16.4935 16.2841 16.4222 16.3802 16.3334 16.4583C16.2405 16.5392 16.1317 16.5995 16.0139 16.6354C15.8962 16.6713 15.7722 16.682 15.65 16.6667C12.5291 16.2665 9.63022 14.8387 7.41062 12.6086C5.19102 10.3784 3.77703 7.47278 3.39169 4.35C3.37843 4.22793 3.39005 4.10444 3.42586 3.98699C3.46167 3.86955 3.52091 3.76058 3.60002 3.66667C3.67811 3.57778 3.77424 3.50654 3.88201 3.45768C3.98977 3.40883 4.1067 3.38349 4.22502 3.38334H6.72502C6.91881 3.37902 7.10804 3.4424 7.26014 3.56256C7.41224 3.68272 7.5177 3.85214 7.55836 4.04167C7.59169 4.26945 7.63336 4.49445 7.68336 4.71667C7.77962 5.15596 7.90774 5.58765 8.06669 6.00834L6.90002 6.55C6.80027 6.59577 6.71054 6.66079 6.63599 6.74133C6.56143 6.82187 6.50352 6.91635 6.46558 7.01933C6.42764 7.12231 6.41042 7.23178 6.4149 7.34144C6.41938 7.4511 6.44547 7.55879 6.49169 7.65834C7.69102 10.2273 9.75606 12.2923 12.325 13.4917C12.5279 13.575 12.7555 13.575 12.9584 13.4917C13.0623 13.4545 13.1578 13.397 13.2393 13.3227C13.3209 13.2483 13.3868 13.1584 13.4334 13.0583L13.95 11.8917C14.3808 12.0457 14.8205 12.1737 15.2667 12.275C15.4889 12.325 15.7139 12.3667 15.9417 12.4C16.1312 12.4407 16.3006 12.5461 16.4208 12.6982C16.541 12.8503 16.6043 13.0395 16.6 13.2333L16.6167 15.8333Z" fill="#878787"/>
</svg>
